<?xml version="1.0" encoding="UTF-8"?>
<svg width="128pt" height="128pt" version="1.1" viewBox="0 0 128 128" xmlns="http://www.w3.org/2000/svg">
 <path d="m82.289 27.355v-4.1445c0-0.69141-0.56641-1.2539-1.2539-1.2539h-3.2891c0.15625-2.9297 0.25391-5.3906 0.25391-7.0781 0 0 0.57422-2.0742-2.3711-2.0742-1.3438 0-3.2656 3.8242-4.9648 9.1406h-7.8867l-0.44922-4.0039h-0.79688c0 1.3047 0 2.6602 0.023438 4.0039h-1.2656c0-1.3438-0.015624-2.6992-0.015624-4.0039h-0.96094v4.0039h-1.2656v-4.0039h-0.96094v4.0039h-1.2656v-4.0039h-0.96094c0 1.3047 0 2.6602-0.015625 4.0039h-1.2656c0.015625-1.3438 0.023437-2.6992 0.023437-4.0039h-0.79687l-0.44922 4.0039h-5.3984c-0.69141 0-1.2539 0.56641-1.2539 1.2539v4.1445c-14.82 6.9102-25.125 21.949-25.125 39.359s10.305 32.449 25.125 39.359v4.1445c0 0.69141 0.56641 1.2539 1.2539 1.2539h7.2617c0.53906 2.9062 1.4844 3.7109 3.0859 3.7109 1.6016 0 2.5586-0.80469 3.0859-3.7109h10.816c0.53906 2.9062 1.4844 3.7109 3.0859 3.7109 1.6016 0 2.5586-0.80469 3.0859-3.7109h3.6484c0.69141 0 1.2539-0.56641 1.2539-1.2539v-4.1445c14.82-6.9102 25.125-21.949 25.125-39.359s-10.305-32.449-25.125-39.359zm-36.578 9.8164c-9.8711 6.1289-16.461 17.074-16.461 29.539 0 12.465 6.5898 23.398 16.461 29.539v0.78125c-10.254-6.2109-17.125-17.469-17.125-30.309s6.875-24.102 17.125-30.309v0.78125zm7.8711-14.582h1.2656c-0.066406 7.4766-0.32031 14.734-0.96094 14.734s-0.41016-7.2305-0.30469-14.734zm0.039063 76.535c0 5.5547 0.12891 9.2656 0.48438 11.711h-7.1406c-0.33594 0-0.60156-0.26953-0.60156-0.60156l-0.003906-87.031c0-0.33594 0.26953-0.60156 0.60156-0.60156h5.3398l-2.3398 20.711c0 8.2031 5.9141 5.6289 5.9141 19.594s-2.2539 28.02-2.2539 36.211zm2.8398-61.785c-0.64063 0-0.65625-7.2305-0.64063-14.734h1.2656c0.015624 7.4766 0 14.734-0.64063 14.734zm5.1094-14.75c0.10156 7.5156 0.33594 14.836-0.30469 14.836s-0.89453-7.2969-0.96094-14.836zm-3.5195 0h1.2656c0.015625 7.5156 0 14.836-0.64062 14.836s-0.65625-7.2969-0.64062-14.836zm12.57 76.535c0 5.5547 0.12891 9.2656 0.48438 11.711h-10.602c0.35938-2.4453 0.48438-6.1562 0.48438-11.711 0-8.2031-2.2539-22.246-2.2539-36.211 0-13.965 6.4648-11.391 6.4648-19.594l-2.3398-20.711h7.6055c-1.9219 6.2344-3.5039 14.324-3.5039 20.711 0 12.184 5.9141 5.6289 5.9141 19.594 0 13.965-2.2539 28.02-2.2539 36.211zm11.02 11.094c0 0.33594-0.26953 0.60156-0.60156 0.60156h-3.5469c0.35937-2.4453 0.48437-6.1562 0.48437-11.711 0-8.2031-2.2539-22.246-2.2539-36.211 0-10.863 1.3711-28.953 1.9844-40.305h3.3281c0.33594 0 0.60156 0.26953 0.60156 0.60156zm0.64844-13.977c9.8711-6.1289 16.461-17.074 16.461-29.539s-6.5898-23.398-16.461-29.539v-0.78125c10.254 6.2109 17.125 17.469 17.125 30.309s-6.875 24.102-17.125 30.309v-0.78125z"/>
</svg>
