<?xml version="1.0" encoding="UTF-8"?>
<svg width="128pt" height="128pt" version="1.1" viewBox="0 0 128 128" xmlns="http://www.w3.org/2000/svg">
 <path d="m90.52 3.8008c-0.14062-0.12109-0.39844-0.17188-0.58203-0.14453l-67.539 10.387c-0.027344 0.003906-0.066407 0.019531-0.089844 0.027343-0.042969 0.011719-0.089844 0.023438-0.12891 0.042969-0.039063 0.019531-0.074219 0.039063-0.10547 0.066407-0.03125 0.027343-0.0625 0.050781-0.089844 0.082031s-0.046875 0.0625-0.066406 0.10156c-0.019531 0.035157-0.039063 0.070313-0.050781 0.10938-0.015626 0.039063-0.050782 0.082032-0.054688 0.125-0.011719 0.023438-0.050781 0.046875-0.050781 0.074219v109.04c0 0.35547 0.34375 0.44531 0.69922 0.44531h83.078c0.35547 0 0.69922-0.089844 0.69922-0.44531v-109.04c0-0.35547-0.34375-0.59375-0.69922-0.59375h-14.66v-9.793c0-0.1875-0.21875-0.36328-0.35938-0.48438zm-0.91797 10.277h-58.773l58.773-9.0469zm15.359 108.8h-81.922v-107.52h81.922z"/>
 <path d="m85.34 60.16c0.042968 0-0.25-0.64453-0.25-1.1367 0.003906-10.465-9.5703-18.691-21.09-19v-4.582c0-0.35156-0.28516-0.64062-0.64062-0.64062-0.35156 0-0.64062 0.28516-0.64062 0.64062v4.582c-10.238 0.30859-20.453 8.5352-20.453 19.004 0 0.49219 0.37109 1.1367 0.41406 1.1367h-4.6445c-0.35156 0-0.64062 0.28516-0.64062 0.64063 0 0.35156 0.28516 0.64062 0.64062 0.64062h51.926c0.35156 0 0.64062-0.28516 0.64062-0.64062 0-0.35156-0.28516-0.64063-0.64062-0.64063z"/>
 <path d="m89.965 102.4h-51.93c-0.35156 0-0.64062 0.28516-0.64062 0.64062 0 0.35156 0.28516 0.64063 0.64062 0.64063h51.926c0.35156 0 0.64062-0.28516 0.64062-0.64063 0.003907-0.35156-0.28516-0.64062-0.63672-0.64062z"/>
 <path d="m89.965 92.16h-51.93c-0.35156 0-0.64062 0.28516-0.64062 0.64062 0 0.35156 0.28516 0.64062 0.64062 0.64062h51.926c0.35156 0 0.64062-0.28516 0.64062-0.64062 0.003907-0.35547-0.28516-0.64062-0.63672-0.64062z"/>
</svg>
