<?xml version="1.0" encoding="UTF-8"?>
<svg width="128pt" height="128pt" version="1.1" viewBox="28 8 76 102" xmlns="http://www.w3.org/2000/svg">
  <!-- Left chair (scaled 0.7, offset to lower-left) -->
  <g transform="translate(3, 28) scale(0.7)">
    <path d="m37.098 85.41c-0.035156 0.52344-0.066406 1.0391-0.10156 1.5781l12.289 7.4141-0.019531-1.7695-0.03125 0.050782z"/>
    <path d="m33.715 63.699 15.309 8.2109-0.074219-6.4414 0.32812-0.003906-15.43-7.6953z"/>
    <path d="m32.719 84.504 3.6562 2.1094c0.035156-0.53516 0.69531-15.551 0.45312-20.508l-3.1406-1.6836c-0.16016 6.3555-0.54688 13.531-0.96875 20.086z"/>
    <path d="m29.73 7.6953-0.78125 0.03125c0.40625 4.6406 4.6719 55.344 0.44531 95.75l1.125 1.125c0.36328-4.0859 2.2148-25.48 2.5469-41.184 0.21484-10.184-3.2148-54.18-3.3359-55.719z"/>
    <path d="m31.141 104.95 3.5742-0.44141c0.14844-1.2656 0.83984-7.1797 1.4102-14.504l-3.6289-2.2383c-0.59375 8.5586-1.2031 15.504-1.3555 17.184z"/>
    <path d="m37.109 54.199-4.3242-46.57-2.4102 0.039063c0.12109 1.5664 2.3711 30.5 3.1094 46.852z"/>
    <path d="m33.43 7.5703 1.9805 21.34 32.68-2.0391-0.76562-20.613z"/>
    <path d="m67.074 51.266-0.003907-0.16406-29.352 2.6914 0.09375 1-2.875 0.25 16.93 8.0508 45.445-4.7305-24.219-7.0234-3.8555 0.71484z"/>
    <path d="m68.996 51.25-0.87891-23.734-1.125 0.070313 0.71484 23.215z"/>
    <path d="m72.77 50.742-2.5195-44.602-2.2812 0.089844 1.6758 45.098z"/>
    <path d="m32.676 85.141c-0.039062 0.63672-0.085937 1.2656-0.12891 1.8906l16.773 10.363-0.023437-2.2305z"/>
    <path d="m91.453 88.547-0.03125-1.1758-19.57-7.5352c-0.039062 0.35937-0.074218 0.73047-0.11328 1.1133z"/>
    <path d="m68.125 79.555 2.9883 1.1484c0.48438-4.6445 0.75-7.7812 0.78906-9.3516l-3.1797 0.375c-0.054687 0.88672-0.25391 3.8789-0.60156 7.8242z"/>
    <path d="m92.711 113.57 1.1406 0.80859 0.14844-45.625-2.3711 0.27344z"/>
    <path d="m56.805 72.492 37.195-4.3945 0.019531-6.125-37.039 4.0312z"/>
    <path d="m94.496 114.55 2.5742-0.82422 0.91016-52.188-3.3164 0.35938z"/>
    <path d="m52.012 121.86 2.8086-0.56641 1.5117-55.219-4.4062 0.48047z"/>
    <path d="m68.066 80.227c-0.074218 0.85156-0.015625 2.0586-0.015625 2.0586l23.48 9.1367-0.050781-2.1758z"/>
    <path d="m49.602 65.625 0.64063 54.977 1.1211 0.94922-0.078125-55.09z"/>
    <path d="m98.965 58.84-47.207 4.9102-17.898-8.5039v1.8086l17.801 8.875 47.391-5.1602z"/>
    <path d="m66.879 71.949c-0.039062 0.46484-1.6289 20.254-2.8945 26.965l0.96094 0.64844c1.9414-10.211 2.9609-25.199 3.1289-27.754z"/>
    <path d="m65.547 99.859 3.4336-0.67969c0.17188-1.3516 1.0352-8.3906 1.7812-15.145l-2.9453-1.1445c-0.52344 5.4219-1.2812 11.82-2.2695 16.969z"/>
  </g>
  <!-- Right chair (scaled 0.7, offset to upper-right) -->
  <g transform="translate(39.5, 10.5) scale(0.7)">
    <path d="m37.098 85.41c-0.035156 0.52344-0.066406 1.0391-0.10156 1.5781l12.289 7.4141-0.019531-1.7695-0.03125 0.050782z"/>
    <path d="m33.715 63.699 15.309 8.2109-0.074219-6.4414 0.32812-0.003906-15.43-7.6953z"/>
    <path d="m32.719 84.504 3.6562 2.1094c0.035156-0.53516 0.69531-15.551 0.45312-20.508l-3.1406-1.6836c-0.16016 6.3555-0.54688 13.531-0.96875 20.086z"/>
    <path d="m29.73 7.6953-0.78125 0.03125c0.40625 4.6406 4.6719 55.344 0.44531 95.75l1.125 1.125c0.36328-4.0859 2.2148-25.48 2.5469-41.184 0.21484-10.184-3.2148-54.18-3.3359-55.719z"/>
    <path d="m31.141 104.95 3.5742-0.44141c0.14844-1.2656 0.83984-7.1797 1.4102-14.504l-3.6289-2.2383c-0.59375 8.5586-1.2031 15.504-1.3555 17.184z"/>
    <path d="m37.109 54.199-4.3242-46.57-2.4102 0.039063c0.12109 1.5664 2.3711 30.5 3.1094 46.852z"/>
    <path d="m33.43 7.5703 1.9805 21.34 32.68-2.0391-0.76562-20.613z"/>
    <path d="m67.074 51.266-0.003907-0.16406-29.352 2.6914 0.09375 1-2.875 0.25 16.93 8.0508 45.445-4.7305-24.219-7.0234-3.8555 0.71484z"/>
    <path d="m68.996 51.25-0.87891-23.734-1.125 0.070313 0.71484 23.215z"/>
    <path d="m72.77 50.742-2.5195-44.602-2.2812 0.089844 1.6758 45.098z"/>
    <path d="m32.676 85.141c-0.039062 0.63672-0.085937 1.2656-0.12891 1.8906l16.773 10.363-0.023437-2.2305z"/>
    <path d="m91.453 88.547-0.03125-1.1758-19.57-7.5352c-0.039062 0.35937-0.074218 0.73047-0.11328 1.1133z"/>
    <path d="m68.125 79.555 2.9883 1.1484c0.48438-4.6445 0.75-7.7812 0.78906-9.3516l-3.1797 0.375c-0.054687 0.88672-0.25391 3.8789-0.60156 7.8242z"/>
    <path d="m92.711 113.57 1.1406 0.80859 0.14844-45.625-2.3711 0.27344z"/>
    <path d="m56.805 72.492 37.195-4.3945 0.019531-6.125-37.039 4.0312z"/>
    <path d="m94.496 114.55 2.5742-0.82422 0.91016-52.188-3.3164 0.35938z"/>
    <path d="m52.012 121.86 2.8086-0.56641 1.5117-55.219-4.4062 0.48047z"/>
    <path d="m68.066 80.227c-0.074218 0.85156-0.015625 2.0586-0.015625 2.0586l23.48 9.1367-0.050781-2.1758z"/>
    <path d="m49.602 65.625 0.64063 54.977 1.1211 0.94922-0.078125-55.09z"/>
    <path d="m98.965 58.84-47.207 4.9102-17.898-8.5039v1.8086l17.801 8.875 47.391-5.1602z"/>
    <path d="m66.879 71.949c-0.039062 0.46484-1.6289 20.254-2.8945 26.965l0.96094 0.64844c1.9414-10.211 2.9609-25.199 3.1289-27.754z"/>
    <path d="m65.547 99.859 3.4336-0.67969c0.17188-1.3516 1.0352-8.3906 1.7812-15.145l-2.9453-1.1445c-0.52344 5.4219-1.2812 11.82-2.2695 16.969z"/>
  </g>
</svg>
